Coordinates
version=1
nRows=17
nColumns=40
inDegrees=yes

Units are S.I. units (second, meters, Newtons, ...)
If the header above contains a line with 'inDegrees', this indicates whether rotational values are in degrees (yes) or radians (no).

endheader
time	pelvis_tilt	pelvis_list	pelvis_rotation	pelvis_tx	pelvis_ty	pelvis_tz	hip_flexion_r	hip_adduction_r	hip_rotation_r	knee_angle_r	knee_angle_r_beta	ankle_angle_r	subtalar_angle_r	mtp_angle_r	hip_flexion_l	hip_adduction_l	hip_rotation_l	knee_angle_l	knee_angle_l_beta	ankle_angle_l	subtalar_angle_l	mtp_angle_l	lumbar_extension	lumbar_bending	lumbar_rotation	arm_flex_r	arm_add_r	arm_rot_r	elbow_flex_r	pro_sup_r	wrist_flex_r	wrist_dev_r	arm_flex_l	arm_add_l	arm_rot_l	elbow_flex_l	pro_sup_l	wrist_flex_l	wrist_dev_l
      0.43000000	      3.72961178	      0.57933980	     -6.24341634	     -0.20107897	      0.93836272	      0.29379144	    -10.87946645	     -1.07265192	    -15.53520282	      8.16468249	      0.14250059	      7.24841551	      7.68646452	      0.00000000	     22.16524051	    -10.90517610	    -20.67168219	     43.37640623	      0.75706111	      3.10181404	     -5.22687077	      0.00000000	     -5.15606400	     -0.91189468	      2.17268666	     39.86539429	    -15.17093423	     39.86539429	     76.29351773	     44.85724126	      0.00000000	      0.00000000	     39.86539429	    -15.17093423	     39.86539429	     76.29351773	     44.85724126	      0.00000000	      0.00000000
      0.43500000	      3.48334143	      0.28921635	     -6.32874003	     -0.19476819	      0.93704468	      0.29371843	    -11.12253834	     -0.81090653	    -15.62364096	      8.08750579	      0.14115360	      7.48992635	      7.88418638	      0.00000000	     22.64157772	    -11.13682632	    -20.80598003	     41.75432831	      0.72875051	      3.30011555	     -4.97535303	      0.00000000	     -5.01671463	     -0.67194987	      2.03555824	     39.86668016	    -15.17086359	     39.86668016	     76.29247035	     44.85756195	      0.00000000	      0.00000000	     39.86668016	    -15.17086359	     39.86668016	     76.29247035	     44.85756195	      0.00000000	      0.00000000
      0.44000000	      3.82756981	      0.77006516	     -6.41256271	     -0.18816122	      0.93692077	      0.29348536	    -12.07137398	     -1.46228424	    -15.71620605	      7.77304168	      0.13566517	      7.63309695	      8.63855393	      0.00000000	     22.07959298	    -10.19774735	    -21.02742060	     39.16775819	      0.68360634	      3.14460336	     -4.69932382	      0.00000000	     -5.39497392	     -1.24148135	      2.22926449	     39.88308696	    -15.16996315	     39.88308696	     76.27915496	     44.86159761	      0.00000000	      0.00000000	     39.88308696	    -15.16996315	     39.88308696	     76.27915496	     44.86159761	      0.00000000	      0.00000000
      0.44500000	      3.53534521	      0.39046305	     -6.47722113	     -0.18185037	      0.93537843	      0.29344543	    -12.24333773	     -1.09321223	    -15.77752310	      7.77864117	      0.13576290	      7.87845867	      8.80035163	      0.00000000	     22.59770090	    -10.55807543	    -21.20290274	     37.57859701	      0.65587025	      3.33467658	     -4.41190918	      0.00000000	     -5.21480983	     -0.94560967	      2.06215100	     39.88438719	    -15.16989188	     39.88438719	     76.27810400	     44.86191308	      0.00000000	      0.00000000	     39.88438719	    -15.16989188	     39.88438719	     76.27810400	     44.86191308	      0.00000000	      0.00000000
      0.45000000	      3.57815880	      0.53938405	     -6.48699305	     -0.17532604	      0.93460748	      0.29306374	    -12.85362765	     -1.33527031	    -15.84532387	      7.54286524	      0.13164783	      7.98847541	      9.35218715	      0.00000000	     22.44626542	    -10.05309478	    -21.30101557	     35.19053096	      0.61419063	      3.25317678	     -3.71867855	      0.00000000	     -5.30864138	     -1.05891966	      2.05976183	     39.89919046	    -15.16908109	     39.89919046	     76.26617344	     44.86546482	      0.00000000	      0.00000000	     39.89919046	    -15.16908109	     39.89919046	     76.26617344	     44.86546482	      0.00000000	      0.00000000
      0.45500000	      3.26716553	      0.07170773	     -6.57622984	     -0.16910120	      0.93302913	      0.29295485	    -12.97536189	     -0.89053279	    -15.77859035	      7.61610155	      0.13292605	      8.23937790	      9.55217588	      0.00000000	     22.89626016	    -10.46155281	    -21.39174976	     33.43319000	      0.58351925	      3.33970009	     -3.24262634	      0.00000000	     -5.00034784	     -0.66125559	      1.83936604	     39.90107146	    -15.16897820	     39.90107146	     76.26466374	     44.86590971	      0.00000000	      0.00000000	     39.90107146	    -15.16897820	     39.90107146	     76.26466374	     44.86590971	      0.00000000	      0.00000000
      0.46000000	      2.93357515	     -0.29597885	     -6.57830477	     -0.16279131	      0.93140528	      0.29265361	    -13.11116143	     -0.52821055	    -15.77462686	      7.60364803	      0.13270869	      8.42620194	      9.74314623	      0.00000000	     23.35557811	    -10.71528072	    -21.47292075	     31.60055588	      0.55153375	      3.36314344	     -2.52738501	      0.00000000	     -4.75100306	     -0.26862101	      1.62364878	     39.90326328	    -15.16885833	     39.90326328	     76.26290610	     44.86642648	      0.00000000	      0.00000000	     39.90326328	    -15.16885833	     39.90326328	     76.26290610	     44.86642648	      0.00000000	      0.00000000
      0.46500000	      2.89702636	     -0.36187285	     -6.57929094	     -0.15628009	      0.93029156	      0.29240467	    -13.64511849	     -0.50188988	    -15.77599222	      7.38796713	      0.12894435	      8.48989386	      9.95681453	      0.00000000	     23.31577054	    -10.55490681	    -21.72799786	     29.41155048	      0.51332839	      3.20199685	     -1.57442831	      0.00000000	     -4.78625363	     -0.28245229	      1.59827718	     39.92015282	    -15.16793576	     39.92015282	     76.24941999	     44.87034652	      0.00000000	      0.00000000	     39.92015282	    -15.16793576	     39.92015282	     76.24941999	     44.87034652	      0.00000000	      0.00000000
      0.47000000	      2.58326140	     -0.73832999	     -6.54217260	     -0.14994014	      0.92863234	      0.29202821	    -13.81849549	     -0.12045057	    -15.76856493	      7.35023952	      0.12828588	      8.62348373	     10.09744904	      0.00000000	     23.72286722	    -10.79859381	    -21.83469219	     27.55415716	      0.48091077	      3.16642761	     -0.59178325	      0.00000000	     -4.54880670	      0.10376305	      1.38672719	     39.92980750	    -15.16740924	     39.92980750	     76.24175399	     44.87254297	      0.00000000	      0.00000000	     39.92980750	    -15.16740924	     39.92980750	     76.24175399	     44.87254297	      0.00000000	      0.00000000
      0.47500000	      2.21739241	     -1.21909691	     -6.56676030	     -0.14374341	      0.92686277	      0.29174986	    -13.89044597	      0.35549520	    -15.69826335	      7.40576728	      0.12925502	      8.79764917	     10.27009391	      0.00000000	     24.19693534	    -11.18677512	    -21.93567435	     25.77853104	      0.44992024	      3.17747776	      0.28081044	      0.00000000	     -4.25238402	      0.58279902	      1.12370513	     39.93198542	    -15.16729057	     39.93198542	     76.24002938	     44.87303385	      0.00000000	      0.00000000	     39.93198542	    -15.16729057	     39.93198542	     76.24002938	     44.87303385	      0.00000000	      0.00000000
      0.48000000	      1.88709419	     -1.58656995	     -6.42379812	     -0.13730791	      0.92512031	      0.29113521	    -14.06556869	      0.75224460	    -15.76647913	      7.34094038	      0.12812358	      8.84008410	     10.31343387	      0.00000000	     24.63855433	    -11.38845621	    -22.06744533	     23.97024217	      0.41835965	      2.97649895	      1.62654539	      0.00000000	     -3.97322154	      1.00485185	      0.89262246	     39.93766062	    -15.16698145	     39.93766062	     76.23554193	     44.87430596	      0.00000000	      0.00000000	     39.93766062	    -15.16698145	     39.93766062	     76.23554193	     44.87430596	      0.00000000	      0.00000000
      0.48500000	      1.50941012	     -2.05604883	     -6.40573432	     -0.13105215	      0.92332471	      0.29070473	    -14.14006960	      1.22459791	    -15.69226303	      7.36956237	      0.12862313	      8.94898992	     10.42813101	      0.00000000	     25.11532590	    -11.73710743	    -22.18625177	     22.21623255	      0.38774641	      2.86880325	      2.81941822	      0.00000000	     -3.70604634	      1.46850685	      0.63063775	     39.94119101	    -15.16678927	     39.94119101	     76.23275646	     44.87509127	      0.00000000	      0.00000000	     39.94119101	    -15.16678927	     39.94119101	     76.23275646	     44.87509127	      0.00000000	      0.00000000
      0.49000000	      1.12346092	     -2.52064772	     -6.36383308	     -0.12479106	      0.92148645	      0.29019855	    -14.19257946	      1.69348501	    -15.62740373	      7.42274151	      0.12955128	      9.04061439	     10.52382975	      0.00000000	     25.61005574	    -12.06737498	    -22.29317481	     20.51410030	      0.35803859	      2.75613499	      4.07746503	      0.00000000	     -3.40320458	      1.96728922	      0.34864040	     39.94385211	    -15.16664448	     39.94385211	     76.23065981	     44.87568032	      0.00000000	      0.00000000	     39.94385211	    -15.16664448	     39.94385211	     76.23065981	     44.87568032	      0.00000000	      0.00000000
      0.49500000	      0.72482193	     -2.97751173	     -6.27941155	     -0.11847229	      0.91962704	      0.28955572	    -14.23681462	      2.15968982	    -15.60913137	      7.46983598	      0.13037323	      9.09058873	     10.56471855	      0.00000000	     26.13490149	    -12.37140795	    -22.39889391	     18.87404376	      0.32941421	      2.53770538	      5.48384223	      0.00000000	     -3.08569231	      2.46265748	      0.06394871	     39.94671031	    -15.16648901	     39.94671031	     76.22841051	     44.87631032	      0.00000000	      0.00000000	     39.94671031	    -15.16648901	     39.94671031	     76.22841051	     44.87631032	      0.00000000	      0.00000000
      0.50000000	      0.32790583	     -3.43382451	     -6.19172106	     -0.11212248	      0.91777606	      0.28882982	    -14.27442916	      2.61386104	    -15.57459335	      7.53300222	      0.13147569	      9.11879284	     10.58618652	      0.00000000	     26.67091026	    -12.66639521	    -22.49841772	     17.32327364	      0.30234816	      2.30197753	      6.95061846	      0.00000000	     -2.75458699	      2.96598941	     -0.23368477	     39.94967960	    -15.16632757	     39.94967960	     76.22607683	     44.87696174	      0.00000000	      0.00000000	     39.94967960	    -15.16632757	     39.94967960	     76.22607683	     44.87696174	      0.00000000	      0.00000000
      0.50500000	     -0.06787505	     -3.89871161	     -6.03049438	     -0.10564541	      0.91587507	      0.28795547	    -14.37249636	      3.11983102	    -15.50792958	      7.47936429	      0.13053953	      9.05369344	     10.41085241	      0.00000000	     27.30267289	    -13.01238755	    -22.82342759	     16.04117691	      0.27997135	      2.04392238	      8.85931345	      0.00000000	     -2.41529386	      3.48369693	     -0.61451654	     39.95937083	    -15.16580102	     39.95937083	     76.21847992	     44.87906772	      0.00000000	      0.00000000	     39.95937083	    -15.16580102	     39.95937083	     76.21847992	     44.87906772	      0.00000000	      0.00000000
      0.51000000	     -0.50065246	     -4.36303526	     -5.97264184	     -0.09933507	      0.91400871	      0.28719026	    -14.34196793	      3.57356657	    -15.41247801	      7.58187071	      0.13232861	      9.05024994	     10.38472218	      0.00000000	     27.89779453	    -13.32043270	    -22.91561689	     14.67983144	      0.25621139	      1.76266251	     10.26212071	      0.00000000	     -2.09830049	      3.98718868	     -0.94925516	     39.96432109	    -15.16553232	     39.96432109	     76.21461245	     44.88013071	      0.00000000	      0.00000000	     39.96432109	    -15.16553232	     39.96432109	     76.21461245	     44.88013071	      0.00000000	      0.00000000
